<?xml version="1.0" encoding="UTF-8"?>
<!DOCTYPE svg PUBLIC "-//W3C//DTD SVG 1.1//EN" "http://www.w3.org/Graphics/SVG/1.1/DTD/svg11.dtd">
<!-- Creator: CorelDRAW -->
<svg xmlns="http://www.w3.org/2000/svg" xml:space="preserve" width="10in" height="10in" version="1.1" style="shape-rendering:geometricPrecision; text-rendering:geometricPrecision; image-rendering:optimizeQuality; fill-rule:evenodd; clip-rule:evenodd"
viewBox="0 0 10000 10000"
 xmlns:xlink="http://www.w3.org/1999/xlink"
 xmlns:xodm="http://www.corel.com/coreldraw/odm/2003">
 <defs>
  <style type="text/css">
   <![CDATA[
    .fil0 {fill:#009DF2}
   ]]>
  </style>
 </defs>
 <g id="Layer_x0020_1">
  <metadata id="CorelCorpID_0Corel-Layer"/>
  <path class="fil0" d="M426.61 1232.27l-14.28 -14.21 589.31 866.82 1787.79 2733.91 -2463.86 3793.13 13.54 -13.73 -8.92 13.73 1.13 -1.15 -5.75 8.81 13.5 -13.61 -8.88 13.61 2790.48 -2814.09 1866.19 3826.28 2.31 -4.74 2.31 4.74 8.52 -17.46 8.52 17.46 2.31 -4.74 2.31 4.74 1866.19 -3826.28 2790.48 2814.09 -8.87 -13.61 13.49 13.61 -5.75 -8.82 1.13 1.15 -8.91 -13.72 13.53 13.72 -2463.86 -3793.13 1787.72 -2733.79 589.39 -866.94 -14.28 14.21 9.66 -14.21 -2812.38 2797.67 -754.15 -1548.19 -1005.81 -2099.3 -2.33 4.79 -2.3 -4.79 -6.08 12.49 -6.08 -12.49 -2.3 4.79 -2.33 -4.79 -1005.8 2099.28 -754.16 1548.2 -2812.38 -2797.67 9.66 14.21zm3151.72 3790.35c-1.17,7.39 -1.28,13.22 -0.1,17.09l1421.76 2961.79 1421.76 -2961.79c1.18,-3.87 1.07,-9.69 -0.1,-17.09l-526.96 -1090.71c-57.33,-124.2 -119.61,-248.15 -181.22,-371.34 -73.25,-146.48 -642.61,-1298.87 -713.48,-1487.38 -70.94,188.62 -640.24,1340.91 -713.48,1487.38 -61.61,123.19 -123.89,247.14 -181.22,371.34l-526.96 1090.71z"/>
 </g>
</svg>
